<?xml version="1.0" standalone="no"?>
<!DOCTYPE svg PUBLIC "-//W3C//DTD SVG 20010904//EN"
 "http://www.w3.org/TR/2001/REC-SVG-20010904/DTD/svg10.dtd">
<svg version="1.0" xmlns="http://www.w3.org/2000/svg"
 width="1000.000000pt" height="416.000000pt" viewBox="0 0 1000.000000 416.000000"
 preserveAspectRatio="xMidYMid meet">

<g transform="translate(0.000000,416.000000) scale(0.100000,-0.100000)"
fill="#000000" stroke="none">
<path d="M5827 3313 c-4 -3 -7 -274 -7 -602 0 -678 0 -678 77 -831 38 -77 63
-110 128 -175 162 -161 342 -230 587 -223 l103 3 0 155 0 155 -130 6 c-98 4
-143 11 -183 26 -97 39 -168 106 -215 203 l-32 65 -3 243 -3 242 158 0 c87 0
164 4 171 8 9 7 12 45 10 158 l-3 149 -167 3 -168 2 0 204 c0 177 -2 205 -16
210 -21 8 -299 8 -307 -1z"/>
<path d="M1578 3035 c-355 -67 -612 -318 -674 -655 -18 -103 -20 -1450 -2
-1468 17 -17 339 -17 356 0 9 9 12 83 12 270 l0 258 145 0 145 0 0 135 c0 163
-8 188 -87 261 -55 50 -57 54 -61 112 -5 76 47 703 61 720 13 16 42 15 56 -1
7 -9 12 -107 13 -293 l3 -279 28 -3 27 -3 0 276 c0 283 4 315 39 315 38 0 41
-19 43 -306 l3 -279 24 -3 c13 -2 28 2 32 10 5 7 9 138 9 290 0 270 0 277 20
283 48 15 50 1 50 -289 0 -149 4 -277 9 -284 4 -8 19 -12 32 -10 l24 3 3 279
c1 186 6 284 13 293 18 20 49 15 58 -9 13 -38 64 -694 56 -734 -5 -28 -20 -50
-62 -88 -31 -28 -62 -65 -69 -83 -18 -41 -20 -303 -3 -303 30 0 142 35 205 65
412 190 593 654 409 1052 -105 227 -301 389 -550 453 -105 28 -266 34 -367 15z"/>
<path d="M3239 2886 c-148 -31 -270 -98 -379 -206 -85 -85 -130 -156 -166
-259 -130 -375 76 -774 468 -905 92 -30 177 -36 566 -36 l392 0 0 408 c0 453
-3 478 -66 607 -86 177 -246 311 -449 375 -89 28 -269 36 -366 16z m323 -340
c119 -57 204 -166 227 -290 6 -33 11 -149 11 -258 l0 -199 -257 3 -258 3 -67
32 c-92 43 -151 100 -195 190 -33 67 -37 83 -37 156 0 99 19 163 72 232 89
117 197 167 352 162 79 -3 105 -8 152 -31z"/>
<path d="M4875 2890 c-243 -36 -457 -189 -559 -403 -63 -130 -66 -157 -66
-604 l0 -403 159 0 c136 0 160 2 165 16 3 9 6 183 6 388 0 416 2 430 66 523
161 235 528 226 683 -15 57 -89 61 -127 61 -539 l0 -373 163 2 162 3 0 405 c0
452 -2 466 -71 607 -135 273 -460 439 -769 393z"/>
<path d="M7400 2885 c-234 -51 -417 -193 -516 -399 -61 -126 -65 -165 -62
-606 l3 -395 160 0 160 0 5 400 5 400 31 65 c39 83 106 150 192 192 63 31 74
33 202 38 l135 5 0 155 0 155 -125 2 c-77 1 -150 -4 -190 -12z"/>
<path d="M7830 2532 c0 -406 2 -428 64 -557 70 -147 177 -255 331 -331 109
-54 197 -74 331 -74 120 0 226 24 328 75 l68 34 -4 -88 c-5 -111 -42 -194
-118 -265 -88 -82 -194 -115 -368 -116 l-73 0 3 -153 3 -152 135 1 c105 1 152
6 213 23 232 64 414 229 493 446 40 111 45 209 42 885 l-3 635 -160 0 -160 0
-5 -365 -5 -365 -28 -58 c-40 -80 -112 -151 -194 -190 -63 -29 -76 -32 -168
-32 -81 1 -111 5 -158 24 -82 32 -175 122 -213 203 l-29 63 -5 360 -5 360
-157 3 -158 3 0 -369z"/>
</g>
</svg>
